<?xml version="1.0" encoding="iso-8859-1"?>
<!-- Generator: Adobe Illustrator 19.0.0, SVG Export Plug-In . SVG Version: 6.00 Build 0)  -->
<svg version="1.1" id="Layer_1" xmlns="http://www.w3.org/2000/svg" xmlns:xlink="http://www.w3.org/1999/xlink" x="0px" y="0px"
	 viewBox="0 0 512 512" style="enable-background:new 0 0 512 512;" xml:space="preserve">
<path style="fill:#FF877F;" d="M259.115,25.984C233.19,19.499,206.387,12.8,179.2,12.8c-36.19,0-76.015,12.109-109.261,33.22
	L64,49.783v235.119l19.661-12.476C112.913,253.85,147.738,243.2,179.2,243.2c24.013,0,48.145,6.033,73.685,12.416
	c25.924,6.485,52.736,13.184,79.915,13.184c26.65,0,82.099,0,111.454-29.346l3.746-3.746V16.538l-21.854,0.017
	C404.301,38.4,356.011,38.4,332.8,38.4C308.779,38.4,284.655,32.367,259.115,25.984z"/>
<path style="fill:#573A32;" d="M51.2,0v512h25.6V293.069C100.292,273.732,140.177,256,179.2,256
	c22.443,0,45.824,5.845,70.588,12.032c26.675,6.673,54.255,13.568,83.012,13.568c28.373,0,87.407,0,120.499-33.101
	c4.804-4.796,7.501-11.307,7.501-18.099V25.6c0-10.351-6.238-19.686-15.804-23.654C441.83,0.64,438.502,0,435.209,0
	c-6.665,0-13.21,2.603-18.108,7.501C398.993,25.6,352.606,25.6,332.8,25.6c-22.443,0-45.824-5.845-70.579-12.032
	C235.546,6.895,207.957,0,179.2,0c-37.171,0-73.429,11.682-102.4,27.273V0H51.2z M179.2,25.6c51.209,0,102.4,25.6,153.6,25.6
	c25.6,0,76.8,0,102.4-25.6c0,51.2,0,128,0,204.8C409.6,256,358.4,256,332.8,256c-51.2,0-102.409-25.6-153.6-25.6
	c-37.53,0-74.957,13.798-102.4,31.215v-204.8C104.252,39.39,141.679,25.6,179.2,25.6z"/>
<g>
</g>
<g>
</g>
<g>
</g>
<g>
</g>
<g>
</g>
<g>
</g>
<g>
</g>
<g>
</g>
<g>
</g>
<g>
</g>
<g>
</g>
<g>
</g>
<g>
</g>
<g>
</g>
<g>
</g>
</svg>
